<svg width="20" height="24" viewBox="0 0 20 24" fill="none" xmlns="http://www.w3.org/2000/svg">
<path d="M3.99998 5.39271V9.94444M3.99998 12.9789V17.5306M3.99998 21.3237V23.5996M16 21.3237V23.5996M12.4 15.2548C11.0745 15.2548 9.99998 13.8962 9.99998 12.2203C9.99998 10.5444 11.0745 9.18582 12.4 9.18582C13.7255 9.18582 14.8 10.5444 14.8 12.2203C14.8 13.8962 13.7255 15.2548 12.4 15.2548ZM2.79998 1.59961H17.2C17.8627 1.59961 18.4 2.2789 18.4 3.11685V19.8065C18.4 20.6445 17.8627 21.3237 17.2 21.3237H2.79998C2.13723 21.3237 1.59998 20.6445 1.59998 19.8065V3.11685C1.59998 2.2789 2.13723 1.59961 2.79998 1.59961Z" stroke="#6B6B6B" stroke-width="2"/>
</svg>
