<svg width="21" height="24" viewBox="0 0 21 24" fill="none" xmlns="http://www.w3.org/2000/svg">
<path d="M1 1V0C0.447715 0 0 0.447715 0 1L1 1ZM19.8571 1H20.8571C20.8571 0.447715 20.4094 0 19.8571 0V1ZM19.8571 23L19.4099 23.8944C19.7199 24.0494 20.0881 24.0329 20.3829 23.8507C20.6777 23.6684 20.8571 23.3466 20.8571 23H19.8571ZM16.7143 21.4286L17.1615 20.5341C16.88 20.3934 16.5486 20.3934 16.2671 20.5341L16.7143 21.4286ZM13.5714 23L13.1242 23.8944C13.4057 24.0352 13.7371 24.0352 14.0186 23.8944L13.5714 23ZM10.4286 21.4286L10.8758 20.5341C10.5943 20.3934 10.2629 20.3934 9.98136 20.5341L10.4286 21.4286ZM7.28571 23L6.8385 23.8944C7.12003 24.0352 7.4514 24.0352 7.73293 23.8944L7.28571 23ZM1 23H0C0 23.3466 0.179452 23.6684 0.474269 23.8507C0.769085 24.0329 1.13723 24.0494 1.44721 23.8944L1 23ZM4.14286 21.4286L4.59007 20.5341C4.30854 20.3934 3.97717 20.3934 3.69564 20.5341L4.14286 21.4286ZM1 2H19.8571V0H1V2ZM18.8571 1V23H20.8571V1H18.8571ZM20.3044 22.1056L17.1615 20.5341L16.2671 22.323L19.4099 23.8944L20.3044 22.1056ZM16.2671 20.5341L13.1242 22.1056L14.0186 23.8944L17.1615 22.323L16.2671 20.5341ZM14.0186 22.1056L10.8758 20.5341L9.98136 22.323L13.1242 23.8944L14.0186 22.1056ZM9.98136 20.5341L6.8385 22.1056L7.73293 23.8944L10.8758 22.323L9.98136 20.5341ZM2 23V1H0V23H2ZM7.73293 22.1056L4.59007 20.5341L3.69564 22.323L6.8385 23.8944L7.73293 22.1056ZM3.69564 20.5341L0.552786 22.1056L1.44721 23.8944L4.59007 22.323L3.69564 20.5341ZM4.92857 8.28571H8.07143V6.28571H4.92857V8.28571ZM11.2143 8.28571H15.9286V6.28571H11.2143V8.28571ZM4.92857 13H8.07143V11H4.92857V13ZM11.2143 13H15.9286V11H11.2143V13ZM11.2143 17.7143H15.9286V15.7143H11.2143V17.7143Z" fill="#6B6B6B"/>
</svg>
